<svg width="100%" height="100%" id="svg" viewBox="0 0 1440 590" xmlns="http://www.w3.org/2000/svg" class="transition duration-300 ease-in-out delay-150"><defs><linearGradient id="gradient" x1="0%" y1="50%" x2="100%" y2="50%"><stop offset="5%" stop-color="#F78DA7"></stop><stop offset="95%" stop-color="#8ED1FC"></stop></linearGradient></defs><path d="M 0,600 L 0,150 C 95.7224880382775,152.57416267942585 191.444976076555,155.14832535885168 292,157 C 392.555023923445,158.85167464114832 497.9425837320575,159.98086124401914 583,170 C 668.0574162679425,180.01913875598086 732.7846889952152,198.92822966507177 814,181 C 895.2153110047848,163.07177033492823 992.9186602870814,108.30622009569379 1100,97 C 1207.0813397129186,85.69377990430621 1323.5406698564593,117.8468899521531 1440,150 L 1440,600 L 0,600 Z" stroke="none" stroke-width="0" fill="url(#gradient)" fill-opacity="0.53" class="transition-all duration-300 ease-in-out delay-150 path-0"></path><defs><linearGradient id="gradient" x1="0%" y1="50%" x2="100%" y2="50%"><stop offset="5%" stop-color="#F78DA7"></stop><stop offset="95%" stop-color="#8ED1FC"></stop></linearGradient></defs><path d="M 0,600 L 0,350 C 74.60287081339715,343.39712918660285 149.2057416267943,336.7942583732057 236,346 C 322.7942583732057,355.2057416267943 421.77990430622003,380.22009569377985 543,376 C 664.22009569378,371.77990430622015 807.6746411483255,338.32535885167465 909,320 C 1010.3253588516745,301.67464114832535 1069.5215311004783,298.47846889952154 1151,306 C 1232.4784688995217,313.52153110047846 1336.2392344497607,331.7607655502392 1440,350 L 1440,600 L 0,600 Z" stroke="none" stroke-width="0" fill="url(#gradient)" fill-opacity="1" class="transition-all duration-300 ease-in-out delay-150 path-1"></path></svg>